<svg xmlns="http://www.w3.org/2000/svg" version="1.1" xmlns:xlink="http://www.w3.org/1999/xlink" xmlns:svgjs="http://svgjs.dev/svgjs" width="1500" height="1682" viewBox="0 0 1500 1682"><g transform="matrix(1,0,0,1,-2.3361931736363886,0)"><svg viewBox="0 0 321 360" data-background-color="#ffffff" preserveAspectRatio="xMidYMid meet" height="1682" width="1500" xmlns="http://www.w3.org/2000/svg" xmlns:xlink="http://www.w3.org/1999/xlink"><g id="tight-bounds" transform="matrix(1,0,0,1,0.5000546608418972,0)"><svg viewBox="0 0 320 360" height="360" width="320"><g><svg></svg></g><g><svg viewBox="0 0 320 360" height="360" width="320"><g><path transform="translate(-119.39272,-98.31927) scale(5.58313,5.58313)" d="M36.7 23.5c0-0.2 0.1-0.4 0.3-0.4 0.2 0 0.4 0.1 0.4 0.4 0.1 0 0.3 0 0.4-0.1 0.4 0 0.8-0.1 1.1 0 0.3 0.1 0.5 0.1 0.8 0.2 0.3 0.1 0.5 0 0.7-0.1 0.4-0.1 0.7-0.3 1.1-0.4 0.2-0.1 0.3-0.1 0.5-0.1 0.2-0.1 0.4-0.1 0.7-0.2 0.5-0.1 1-0.2 1.4-0.4 0.4-0.2 0.8-0.2 1.2-0.3 0.2 0 0.3-0.1 0.5-0.2 0.1 0 0.1-0.1 0.2-0.2 0.2-0.1 0.3-0.2 0.5-0.1 0.1 0.1 0.3 0.1 0.4 0h0.1c0.6 0 1.2-0.1 1.9 0 0.1 0 0.2 0 0.2 0 0.3-0.2 0.7-0.2 1.1-0.2 0.1 0 0.3 0 0.4 0h0.1c0.4 0 0.8 0 1.1 0.1 0.3 0 0.5 0.1 0.8 0.2 0.3 0 0.5 0 0.8 0.1 0.2 0 0.4 0 0.6 0 0.1 0 0.2 0 0.2 0 0.4 0.1 0.8 0.1 1.2 0.1 0.3 0.1 0.6 0.2 1 0.2 0.1 0 0.2 0 0.3 0 0.1 0 0.2 0.1 0.3 0.1l0.1 0.1c0.4 0 0.7 0.2 1.1 0.2 0.1 0 0.3 0 0.4 0.1 0.3 0.2 0.7 0.3 1.1 0.3 0.2 0 0.3 0.1 0.4 0.2 0.3 0.1 0.5 0.2 0.8 0.3 0.2 0.1 0.4 0 0.6 0.1 0.3 0.1 0.7 0.2 1 0.5 0.2 0.2 0.4 0.2 0.7 0.4 0.1 0 0.2 0.1 0.3 0.2 0.3 0.2 0.6 0.4 0.9 0.5 0.1 0 0.2 0.1 0.3 0.1 0.3 0.2 0.6 0.5 1 0.7 0.2 0.1 0.3 0.2 0.5 0.3h0.1c0.3 0.3 0.7 0.5 1 0.8 0.3 0.3 0.5 0.5 0.9 0.7 0 0 0 0 0 0.1 0.1 0.2 0.2 0.3 0.4 0.4 0.2 0.1 0.3 0.2 0.4 0.3 0.3 0.2 0.6 0.4 0.8 0.6 0.1 0.1 0.2 0.2 0.4 0.4 0.1 0.1 0.2 0.2 0.3 0.2 0.4 0.1 0.6 0.4 0.9 0.7 0.2 0.2 0.5 0.5 0.7 0.7 0.1 0.1 0.2 0.3 0.3 0.5 0.2 0.6 0.5 1.2 0.8 1.7 0 0 0 0.1 0.1 0.2v0.1c0.2 0.2 0.3 0.5 0.5 0.7 0.1 0.1 0.1 0.2 0.2 0.3 0.2 0.3 0.3 0.7 0.5 1 0.3 0.5 0.5 1 0.7 1.5v0.1c0.1 0.2 0.2 0.4 0.3 0.7 0 0.2 0.2 0.4 0.3 0.7 0.1 0.5 0.4 1 0.5 1.6 0 0.1 0.1 0.2 0.1 0.4 0.1 0.3 0.2 0.6 0.3 0.9 0 0.1 0.1 0.2 0.2 0.3 0.2 0.2 0.2 0.4 0.2 0.6-0.1 0.4 0 0.8 0.1 1.2 0 0.1 0 0.2 0 0.4 0.1 0.4 0.2 0.9 0.2 1.3 0 0.1 0 0.3 0 0.4 0 0.3 0.1 0.6 0.3 0.9 0 0.1 0.1 0.1 0.1 0.1 0.1 0.1 0.2 0.3 0.3 0.4 0.1 0.1 0.1 0.1 0.2 0.2 0.2 0.2 0.3 0.4 0.3 0.7 0 0.1-0.1 0.3-0.1 0.4 0 0.1 0 0.3 0.1 0.4 0.1 0.1 0.1 0.2 0.1 0.3 0 0.1-0.1 0.2-0.2 0.2v0c-0.1 0.3-0.5 0.4-0.6 0.7-0.1 0.4-0.2 0.8-0.3 1.2-0.1 0.3-0.1 0.5-0.1 0.8 0 0.3-0.1 0.5-0.1 0.8-0.1 0.4-0.2 0.8-0.3 1.2 0 0.2-0.1 0.4-0.1 0.6 0.1 0.1 0.2 0.2 0.3 0.2 0.2 0.2 0.4 0.4 0.6 0.6 0.1 0.1 0.1 0.2 0 0.2-0.1 0.1-0.2 0.1-0.3 0.1-0.1-0.1-0.3-0.2-0.4-0.2-0.1-0.1-0.3-0.2-0.5-0.1 0 0.2-0.1 0.4-0.1 0.5-0.1 0.2-0.2 0.5-0.2 0.7-0.1 0.4-0.3 0.7-0.4 1.1-0.2 0.5-0.4 0.9-0.6 1.3-0.1 0.2-0.2 0.4-0.3 0.6v0c0 0.3-0.3 0.6-0.4 0.9-0.2 0.4-0.4 0.8-0.6 1.3-0.1 0.2-0.2 0.4-0.3 0.5-0.2 0.5-0.4 0.9-0.7 1.3-0.2 0.3-0.4 0.5-0.6 0.6-0.2 0.2-0.4 0.4-0.6 0.6-0.1 0.1-0.2 0.2-0.3 0.3-0.1 0.1-0.1 0.1-0.2 0.2-0.2 0.3-0.5 0.5-0.7 0.8-0.2 0.2-0.3 0.4-0.6 0.6-0.2 0.2-0.4 0.5-0.7 0.6-0.1 0.1-0.2 0.3-0.3 0.4-0.1 0.1-0.2 0.3-0.3 0.4 0 0.2 0.1 0.4 0.1 0.5 0 0.3-0.3 0.4-0.5 0.2-0.3-0.2-0.3-0.2-0.6 0-0.3 0.2-0.6 0.5-1 0.6-0.1 0-0.1 0.1-0.2 0.1-0.2 0.1-0.3 0.3-0.5 0.4-0.2 0.2-0.5 0.3-0.7 0.5-0.1 0.1-0.2 0.1-0.3 0.2-0.3 0.2-0.6 0.3-0.9 0.6-0.1 0.1-0.2 0.1-0.3 0.2 0 0.1 0 0.1 0 0.2 0 0.2-0.2 0.4-0.5 0.3-0.3-0.1-0.5 0-0.8 0-0.3 0.1-0.6 0.3-0.9 0.4-0.1 0-0.2 0.1-0.3 0.2-0.3 0.2-0.6 0.3-0.9 0.4-0.2 0-0.4 0.2-0.6 0.2-0.1 0-0.2 0.1-0.3 0.1h-0.1c-0.4 0.3-0.8 0.5-1.2 0.8-0.1 0-0.1 0.1-0.2 0.2-0.1 0.2-0.2 0.3-0.4 0.3-0.5 0-0.7 0.4-0.6 0.8 0 0.1 0.1 0.2 0.1 0.3 0.1 0.2 0 0.4-0.1 0.5-0.1 0.1-0.4 0.1-0.5-0.1-0.2-0.2-0.3-0.4-0.4-0.7-0.1-0.2-0.3-0.4-0.5-0.5-0.2-0.1-0.4-0.1-0.6 0-0.1 0-0.1 0.1-0.2 0.1-0.2 0.2-0.5 0.3-0.8 0.2-0.1 0-0.3 0-0.3 0.1-0.1 0.1-0.1 0.3 0 0.4 0.2 0.2 0.1 0.4 0.1 0.7 0 0.4-0.3 0.6-0.7 0.4-0.1-0.1-0.2-0.1-0.3-0.2-0.1 0-0.1-0.1-0.1-0.2-0.1-0.1-0.1-0.3-0.2-0.5-0.2 0.1-0.4 0.1-0.6 0.2-0.1 0-0.2 0.1-0.3 0.1-0.3 0-0.4 0-0.5-0.3-0.1-0.3-0.3-0.3-0.5-0.4-0.4-0.1-0.9-0.1-1.3-0.3h-0.1c-0.4-0.3-0.8-0.3-1.3-0.3-0.3 0-0.6 0.1-0.9 0.1-0.3 0-0.5 0.1-0.7 0.3-0.1 0.1-0.2 0.2-0.3 0.2-0.1-0.1-0.1-0.2-0.2-0.3v-0.1c0-0.1-0.1-0.2-0.2-0.1-0.2 0.1-0.4-0.1-0.6-0.2-0.1-0.1-0.3-0.3-0.3-0.5-0.1-0.1-0.2-0.2-0.3-0.2-0.2 0-0.5-0.1-0.7-0.1-0.1 0-0.2 0-0.2-0.1-0.1-0.1-0.2-0.1-0.4-0.1-0.1 0-0.1-0.1-0.2-0.1 0.2 0.2 0.3 0.4 0.4 0.6 0 0.1 0.1 0.1 0.1 0.2 0.1 0.2 0 0.3-0.3 0.3-0.2 0-0.2 0-0.3 0.1 0 0.2 0 0.3 0 0.5 0 0.1 0 0.2-0.2 0.3 0 0-0.1 0-0.1 0.1-0.1 0.1-0.1 0.2 0 0.3 0.3 0.2 0.5 0.3 0.8 0.4 0.3 0 0.3 0.2 0.4 0.4 0.1 0.2 0 0.3-0.1 0.5-0.2 0.2-0.4 0.4-0.6 0.6-0.3 0.1-0.5 0.4-0.8 0.4-0.2 0-0.4-0.1-0.5-0.3-0.1-0.5-0.1-0.9 0.1-1.4 0-0.1 0.1-0.2 0-0.3-0.9 0-0.9-0.2-0.9-0.3 0-0.2 0.1-0.3 0.1-0.5 0.1-0.2 0-0.3-0.3-0.4-0.1 0-0.2 0-0.3 0-0.1 0-0.1-0.1-0.3-0.1 0.2-0.1 0.3-0.1 0.5-0.2-0.1-0.4-0.2-0.7-0.5-0.9-0.1-0.1-0.2-0.2-0.2-0.4 0-0.3-0.2-0.5-0.3-0.7-0.2-0.3-0.6-0.4-0.9-0.4-0.3-0.1-0.5-0.1-0.8-0.2-0.3-0.1-0.6-0.4-0.9-0.5-0.1-0.1-0.2-0.2-0.4-0.3-0.4-0.2-0.7-0.5-1-0.8-0.2-0.1-0.3-0.3-0.5-0.4-0.2-0.2-0.3-0.4-0.5-0.5-0.2-0.2-0.4-0.4-0.7-0.6-0.3-0.2-0.5-0.5-0.8-0.8-0.2-0.3-0.5-0.5-0.8-0.7-0.1 0-0.2 0-0.3 0-0.1 0-0.2 0.1-0.3 0.1-0.3 0.1-0.5 0.3-0.8 0.4 0.1-0.1 0.1-0.1 0-0.3-0.1-0.1-0.2-0.2-0.3-0.2-0.2 0-0.4 0-0.6 0-0.4 0-0.8 0.1-1.2 0.1-0.3 0-0.7 0.1-1 0.2 0.1 0.2 0.1 0.3 0.2 0.5-0.2 0.1-0.4 0.1-0.6 0.1-0.1 0-0.3 0.1-0.4 0.2-0.1 0-0.1 0.1-0.2 0-0.2-0.1-0.4 0-0.6 0.1h-0.1c0 0 0-0.1 0.1-0.1 0.1-0.1 0.2-0.2 0.3-0.3 0.1-0.1 0.2-0.1 0.4-0.2-0.1-0.1-0.1-0.2-0.1-0.2-0.1-0.1-0.2-0.1-0.3 0-0.1 0.1-0.2 0.2-0.3 0.3-0.1 0.1-0.2 0.1-0.3 0-0.1-0.1-0.1-0.2 0-0.3 0-0.1 0.1-0.2 0.2-0.3 0.1-0.1 0.1-0.2 0.2-0.3-0.2-0.2-0.3-0.4-0.5-0.5-0.3-0.2-0.6-0.5-0.8-0.8-0.2-0.4-0.5-0.7-0.9-0.9-0.1-0.1-0.2-0.2-0.3-0.3-0.1-0.1-0.1-0.1-0.2-0.2-0.3 0.1-0.5 0.3-0.8 0.4-0.1 0-0.1 0.1-0.2 0.2-0.1 0.2-0.3 0.2-0.5 0.2-0.1 0-0.2-0.1-0.1-0.2 0.1-0.2 0.2-0.4 0.5-0.3 0 0 0.1 0 0.1-0.1 0.2-0.2 0.4-0.5 0.7-0.7-0.1-0.3-0.3-0.5-0.4-0.7-0.1-0.1-0.1-0.2-0.1-0.4 0-0.1 0-0.1-0.1-0.2 0 0-0.1 0-0.2 0.1-0.1 0.1-0.3 0.2-0.5 0 0-0.1 0-0.2 0.1-0.3l0.1-0.1c0.3-0.1 0.3-0.4 0.3-0.7v-0.1c-0.1-0.2-0.1-0.3 0.1-0.5 0.3-0.2 0.6-0.6 0.7-0.9 0.1-0.2 0.3-0.3 0.5-0.5 0.2-0.2 0.4-0.4 0.5-0.7h0.1c0.4 0.1 0.5-0.2 0.7-0.5 0-0.1 0-0.2 0.1-0.2 0.2-0.2 0.2-0.4 0.1-0.7 0-0.1-0.1-0.3-0.1-0.4 0-0.1 0-0.1-0.1-0.2-0.3-0.2-0.3-0.4 0-0.6 0.2-0.1 0.2-0.3 0.3-0.4 0.1-0.2 0.1-0.4 0.1-0.7-0.1-0.3-0.1-0.7-0.2-1-0.1-0.4-0.2-0.9-0.3-1.3 0-0.1 0-0.1 0-0.2 0-0.3 0-0.5-0.1-0.8-0.1-0.1-0.1-0.3-0.1-0.4-0.1-0.3-0.2-0.5-0.5-0.6-0.3-0.2-0.7-0.3-1-0.5-0.1-0.1-0.2 0-0.3 0.1-0.1 0.2-0.3 0.4-0.4 0.6-0.1 0.1-0.2 0.3-0.3 0.5-0.2 0.2-0.6 0.4-0.9 0.1-0.1-0.2-0.2-0.3 0-0.5 0.2-0.3 0.4-0.6 0.7-0.8 0.1-0.1 0.2-0.3 0.3-0.4 0.1-0.2 0.1-0.4 0.1-0.6-0.1-0.4-0.2-0.8-0.2-1.3 0-0.5 0-0.9 0.1-1.4 0.1-0.2 0.1-0.5 0.2-0.7 0-0.1 0.1-0.3 0.2-0.4 0.2-0.2 0.4-0.4 0.5-0.7 0.1-0.3 0.3-0.6 0.3-0.9 0-0.1 0.1-0.2 0.1-0.3 0-0.1 0.1-0.3 0.1-0.4-0.1-0.3 0-0.5 0.1-0.7 0.1-0.2 0.2-0.5 0.3-0.7 0.2-0.4 0.2-0.9 0.6-1.3 0.1-0.2 0.2-0.4 0.3-0.6 0.1-0.4 0.3-0.7 0.5-1 0.1-0.1 0.1-0.1 0.1-0.2 0.1-0.3 0.3-0.6 0.5-0.9 0.2-0.3 0.2-0.6 0.3-0.9 0-0.1 0-0.2 0.1-0.3 0.3-0.3 0.2-0.7 0.1-1.1-0.2-0.5-0.3-1-0.2-1.5 0-0.1 0-0.2 0.1-0.2 0.1-0.2 0.1-0.3 0.2-0.5v-0.1c0.2-0.2 0.4-0.5 0.7-0.6 0.4-0.2 0.8-0.3 1.3-0.4 0.4 0 0.8-0.2 1.1-0.6 0-0.1 0.1-0.1 0.2-0.2l0.1-0.1c0.1-0.2 0.2-0.3 0.3-0.4 0.2-0.2 0.4-0.5 0.6-0.7 0.2-0.2 0.4-0.5 0.7-0.8l0.1-0.1c0.2-0.2 0.4-0.4 0.6-0.5 0.2-0.2 0.4-0.4 0.6-0.6 0.2-0.2 0.3-0.4 0.5-0.6 0.2-0.1 0.4-0.3 0.6-0.5 0.2-0.2 0.4-0.4 0.5-0.5 0.2-0.2 0.5-0.4 0.7-0.5 0.2-0.1 0.4-0.2 0.5-0.5 0.1-0.3 0.2-0.5 0.3-0.8 0-0.2 0.1-0.4 0.2-0.6 0.1 0 0.2 0 0.4-0.1-0.1-0.1-0.2-0.1-0.2-0.2 0-0.1 0.1-0.2 0.1-0.2 0-0.1 0.1-0.2 0.1-0.3 0 0 0.1 0 0.1-0.1 0 0 0.1 0 0.1-0.1-0.2 0.1-0.3 0-0.4-0.1 0.1 0.1 0.2 0.1 0.4 0.2 0 0 0.1 0 0.1-0.1 0-0.1 0-0.2 0-0.2 0 0-0.1 0-0.2 0-0.1 0-0.2 0.1-0.3 0.1zM54 70.5c0-0.1-0.1-0.1-0.1-0.2-0.1-0.2 0-0.3 0.1-0.4 0.1-0.1 0.2-0.1 0.4-0.1 0.2 0.1 0.3 0.2 0.3 0.4 0 0.1 0 0.3 0 0.4 0.1 0.4 0.1 0.4 0.5 0.4 0.2 0 0.4 0 0.6 0 0.4-0.1 0.8-0.3 1.2-0.4 0.4-0.1 0.8-0.2 1.2-0.3 0.1 0 0.2 0 0.4 0 0.4 0.1 0.7 0 1-0.2 0.1-0.1 0.3-0.1 0.4-0.2 0.2-0.1 0.4-0.1 0.6-0.2 0.5-0.3 1-0.5 1.4-0.8 0.3-0.2 0.6-0.4 0.9-0.6 0.3-0.2 0.6-0.4 0.9-0.6 0.2-0.1 0.5-0.3 0.7-0.5 0.4-0.3 0.7-0.6 1.1-0.8 0.2-0.1 0.3-0.2 0.4-0.3 0.2-0.1 0.3-0.3 0.5-0.4 0.1-0.1 0.2-0.2 0.4-0.3 0.1-0.1 0.1-0.1 0.1-0.2 0.3-0.2 0.6-0.6 0.8-0.9 0.2-0.2 0.4-0.4 0.6-0.7 0.3-0.3 0.5-0.7 0.8-1.1 0.2-0.2 0.4-0.5 0.5-0.7 0.2-0.4 0.4-0.8 0.7-1.1v-0.1c0.2-0.4 0.4-0.8 0.6-1.2 0.3-0.5 0.5-1.1 0.8-1.6 0.1-0.2 0.2-0.4 0.2-0.6 0.2-0.4 0.3-0.8 0.4-1.2 0-0.1 0-0.1 0.1-0.2 0.3-0.6 0.5-1.2 0.6-1.9 0.1-0.4 0.2-0.8 0.3-1.2 0.2-0.6 0.2-1.1 0.3-1.7 0.1-0.4 0.1-0.9 0.1-1.3 0.1-0.6 0.1-1.3 0-1.9 0-0.5-0.1-1.1-0.1-1.6 0-0.5-0.1-0.9-0.2-1.4-0.1-0.5-0.2-0.9-0.3-1.4-0.2-0.4-0.3-0.8-0.4-1.3-0.1-0.4-0.3-0.7-0.3-1.1 0-0.3-0.1-0.6-0.4-0.7-0.3-0.1-0.5-0.2-0.8-0.4-0.6-0.4-0.9-0.9-0.8-1.5 0-0.3 0.1-0.7 0.2-1 0.1-0.3 0.2-0.6 0-0.8-0.1-0.3-0.3-0.5-0.4-0.7-0.2-0.3-0.3-0.5-0.5-0.7-0.2-0.4-0.4-0.8-0.7-1.1-0.4-0.5-0.7-1-1.2-1.4l-0.1-0.1c-0.3-0.4-0.6-0.8-1-1.1-0.2-0.2-0.4-0.4-0.6-0.5-0.1-0.1-0.2-0.2-0.4-0.3-0.3-0.2-0.6-0.3-0.8-0.5-0.3-0.3-0.7-0.5-1-0.7 0 0-0.1 0-0.1-0.1-0.4-0.2-0.7-0.3-1.1-0.5-0.4-0.2-0.8-0.3-1.2-0.3-0.1 0-0.1 0-0.2 0-0.1-0.1-0.3-0.1-0.4-0.1-0.1 0-0.1 0-0.2 0-0.2-0.1-0.5 0-0.7 0-0.4 0.1-0.8 0.1-1.2-0.1-0.5-0.2-0.9-0.4-1.3-0.6-0.3-0.2-0.5-0.4-0.8-0.6-0.6-0.5-1.2-1.1-1.9-1.6 0.1-0.5-0.1-0.6-0.5-0.6-0.2 0-0.4 0.1-0.6 0.2-0.1 0.1-0.1 0.1-0.2 0.2-0.3 0.2-0.5 0.5-0.8 0.7-0.5 0.3-0.7 0.2-1.1 0-0.1-0.1-0.2-0.2-0.3-0.3-0.2-0.2-0.4-0.5-0.5-0.7-0.2-0.4-0.6-0.4-1-0.4-0.2 0-0.5 0.1-0.7 0.1-0.4 0-0.8 0.2-1 0.5-0.2 0.3-0.4 0.6-0.7 0.9-0.1 0.1-0.3 0.2-0.4 0.4-0.2 0.2-0.4 0.2-0.6 0-0.1-0.1-0.2-0.1-0.3-0.2-0.1 0.1-0.2 0.2-0.2 0.3-0.1 0.2-0.2 0.4-0.3 0.7-0.1 0.3-0.3 0.6-0.5 0.8-0.1 0.1-0.1 0.1-0.2 0.2-0.1 0.2-0.4 0.3-0.6 0.3-0.2 0.2-0.4 0.5-0.5 0.7-0.1 0.2-0.2 0.4-0.3 0.7-0.1 0.1-0.1 0.3-0.2 0.4-0.1 0.2-0.1 0.3-0.1 0.5 0.1 0.3-0.1 0.4-0.4 0.5-0.2 0-0.2 0-0.3 0.2 0 0.3 0.1 0.5 0.2 0.8 0.1 0.1 0.2 0.3 0.2 0.4 0 0.2 0.1 0.3 0.3 0.4 0.1 0.1 0.2 0.2 0.3 0.2 0.1 0 0.1 0.1 0.2 0.1 0.1 0.1 0.2 0 0.2-0.1 0.1-0.3 0.2-0.6 0.2-0.9 0.1-0.4 0.1-0.7 0.2-1.1 0.1-0.2 0.2-0.3 0.3-0.4 0 0 0.1 0 0.2 0v0.1c-0.1 0.5-0.3 1.1-0.4 1.6-0.1 0.2-0.1 0.4-0.2 0.6 0 0.1-0.1 0.2-0.2 0.2-0.2 0.1-0.4 0.2-0.6 0.2-0.1 0-0.2 0-0.3 0-0.2-0.1-0.4-0.3-0.6-0.4-0.1-0.1-0.2-0.2-0.3-0.3-0.1-0.2-0.2-0.4-0.3-0.6-0.1-0.2-0.2-0.3-0.4-0.4-0.1-0.1-0.2-0.1-0.3-0.2-0.2-0.2-0.4-0.3-0.7-0.3-0.1 0-0.3 0-0.4 0-0.1 0-0.3 0.1-0.4 0.2-0.2 0.1-0.3 0.1-0.5 0-0.5-0.2-1-0.1-1.5 0.1-0.2 0.1-0.4 0.2-0.6 0.2-0.5 0-0.9 0-1.4 0-0.5 0-0.9-0.1-1.4-0.2-0.2 0-0.4 0-0.6 0-0.4 0.1-0.5 0.4-0.4 0.8 0.1 0.4 0.2 0.9 0.2 1.3 0 0.3 0 0.6 0 0.9 0 0.2 0 0.3 0 0.5 0 0.3-0.1 0.6-0.1 0.9-0.1 0.6-0.4 1.1-0.8 1.5-0.3 0.3-0.7 0.6-1.1 0.7-0.2 0.1-0.4 0.2-0.7 0.3-0.5 0.2-0.9 0.6-1.2 1.1-0.1 0.2-0.2 0.4-0.3 0.6-0.2 0.3-0.3 0.5-0.5 0.8-0.1 0.2-0.3 0.4-0.4 0.6-0.1 0.2-0.3 0.3-0.3 0.5-0.2 0.4-0.3 0.8-0.5 1.2-0.1 0.2-0.1 0.5-0.2 0.7-0.2 0.4-0.2 0.8-0.2 1.3 0 0.1 0 0.2 0 0.4 0 0.5-0.1 1.1-0.1 1.6 0 0.5 0 1 0.1 1.5 0 0.2 0 0.5 0 0.7 0 0.4 0.1 0.9 0.1 1.3 0 0.4 0 0.9 0.2 1.3v0.1c0.1 0.4 0.1 0.8 0.2 1.2 0 0.1 0 0.2 0.1 0.3 0.2 0.6 0.3 1.1 0.5 1.7 0.1 0.4 0.3 0.8 0.4 1.2 0.1 0.4 0.5 0.8 0.6 1.3v0c0.3 0.6 0.6 1.2 1 1.8 0.1 0.2 0.3 0.4 0.4 0.6 0.2 0.3 0.3 0.6 0.5 0.8 0.1 0.2 0.3 0.4 0.4 0.5 0.1 0.2 0.2 0.4 0.4 0.6 0.2 0.2 0.4 0.5 0.6 0.7 0.3 0.5 0.7 0.9 1.1 1.2 0.2 0.2 0.4 0.3 0.6 0.5 0.1 0.1 0.2 0.1 0.2 0.2 0.1 0.1 0.2 0.2 0.4 0.3 0.8 0.4 1.4 1 2.1 1.6 0.3 0.3 0.6 0.6 1 0.8 0.4 0.3 0.7 0.6 1.2 0.7 0 0 0.1 0 0.1 0.1 0.2 0.2 0.5 0.3 0.7 0.4 0.4 0.2 0.9 0.4 1.3 0.6 0.1 0.1 0.3 0.1 0.4 0.2 0.3 0.1 0.6 0.2 0.9 0.3 0.3 0.1 0.5 0.2 0.8 0.2h0.1c0.2 0.1 0.3 0.1 0.5 0 0.1 0 0.2 0 0.2 0.1 0 0.1 0.1 0.1 0.2 0.1 0.1 0 0.2 0 0.4 0 0.1-0.1 0.1-0.2 0.2-0.4 0.1 0.1 0.2 0.1 0.2 0.1 0.1 0.2 0.3 0.2 0.5 0.2h0.1c0.2 0 0.3 0 0.4-0.1 0-0.1 0.2-0.1 0.3-0.1 0.3 0.1 0.6 0.1 0.9 0.2 0.2 0.1 0.5 0.1 0.6-0.1 0.1-0.1 0.2-0.2 0.4-0.1 0.2 0.1 0.3 0.1 0.5 0 0.1 0 0.2 0 0.2 0 0.3 0.1 0.5 0.1 0.8 0.2 0.4 0.1 0.4 0.1 0.7-0.2 0.1-0.1 0.3-0.1 0.4 0 0.1 0.2 0.1 0.3 0.1 0.5 0.1 0 0.1 0 0.2-0.1 0-0.2 0.1-0.2 0.3-0.3 0.1 0.1 0.1 0.1 0.2 0.1 0.2 0.2 0.3 0.2 0.4-0.1 0-0.1 0-0.2 0.1-0.2 0.1 0 0.2 0.1 0.2 0.1 0.1 0.2 0.3 0.3 0.4 0.5 0.2 0.2 0.5 0.2 0.6 0 0.1-0.1 0.2-0.1 0.3-0.1 0-0.1 0-0.2 0-0.3 0.3 0.2 0.2 0.2 0.1 0.2zM37.4 23.8c0.3 0.1 0.5 0.1 0.6-0.1-0.2 0.1-0.4-0.1-0.6 0.1z" fill="#8d021f" fill-rule="nonzero" stroke="none" stroke-width="1" stroke-linecap="butt" stroke-linejoin="miter" stroke-miterlimit="10" stroke-dasharray="" stroke-dashoffset="0" font-family="none" font-weight="none" font-size="none" text-anchor="none" style="mix-blend-mode: normal" data-fill-palette-color="tertiary"></path></g><g transform="matrix(1,0,0,1,64,122.0466736634505)"><svg viewBox="0 0 192 115.90665267309899" height="115.90665267309899" width="192"><g><svg viewBox="0 0 192 115.90665267309899" height="115.90665267309899" width="192"><g><svg viewBox="0 0 192 115.90665267309899" height="115.90665267309899" width="192"><g transform="matrix(1,0,0,1,0,78.20675036698957)"><svg viewBox="0 0 192 37.699902306109415" height="37.699902306109415" width="192"><g id="textblocktransform"><svg viewBox="0 0 192 37.699902306109415" height="37.699902306109415" width="192" id="textblock"><g><svg viewBox="0 0 192 20.095082665152912" height="20.095082665152912" width="192"><g transform="matrix(1,0,0,1,0,0)"><svg width="192" viewBox="4.49 -36.01 344.03999999999996 36.01" height="20.095082665152912" data-palette-color="#8d021f"><path d="M27.29-18.26L27.29-18.26Q28.39-17.92 29.3-17.29 30.2-16.65 30.83-15.66 31.47-14.67 31.81-13.33 32.15-11.99 32.15-10.25L32.15-10.25 32.15-8.5Q32.15 0 23.66 0L23.66 0 4.49 0 4.49-35.01 22.66-35.01Q31.15-35.01 31.15-26.49L31.15-26.49 31.15-25.85Q31.15-22.9 30.21-21.03 29.27-19.17 27.29-18.26ZM23.51-15.26L9.4-15.26 9.4-4.91 23.51-4.91Q25.49-4.91 26.37-5.83 27.25-6.76 27.25-8.74L27.25-8.74 27.25-11.45Q27.25-13.45 26.37-14.36 25.49-15.26 23.51-15.26L23.51-15.26ZM22.51-30.1L9.4-30.1 9.4-20.14 22.85-20.14Q24.66-20.21 25.45-21.13 26.25-22.05 26.25-23.95L26.25-23.95 26.25-26.25Q26.25-28.25 25.37-29.17 24.49-30.1 22.51-30.1L22.51-30.1ZM62.16-21.19L62.16 0 57.35 0 57.35-21.19 43.94-21.19 43.94 0 39.16 0 39.16-36.01 43.94-36.01 43.94-21.41Q43.99-22.36 44.38-23.21 44.77-24.05 45.42-24.67 46.07-25.29 46.92-25.65 47.78-26 48.75-26L48.75-26 57.35-26Q58.35-26 59.23-25.62 60.1-25.24 60.75-24.6 61.4-23.95 61.78-23.07 62.16-22.19 62.16-21.19L62.16-21.19ZM84.86-21.19L74.95-21.19 74.95 0 70.16 0 70.16-26 74.95-26 74.95-21.41Q75-22.36 75.39-23.21 75.78-24.05 76.42-24.67 77.07-25.29 77.92-25.65 78.78-26 79.76-26L79.76-26 84.86-26Q85.86-26 86.73-25.62 87.59-25.24 88.25-24.6 88.91-23.95 89.29-23.07 89.67-22.19 89.67-21.19L89.67-21.19 89.67-16.8 84.86-16.8 84.86-21.19ZM95.65-4.81L95.65-11.35Q95.65-12.35 96.03-13.22 96.4-14.09 97.05-14.75 97.7-15.41 98.58-15.78 99.46-16.16 100.43-16.16L100.43-16.16 112.83-16.16 112.83-21.19 97.14-21.19 97.14-26 112.83-26Q113.84-26 114.71-25.62 115.59-25.24 116.24-24.6 116.89-23.95 117.27-23.07 117.64-22.19 117.64-21.19L117.64-21.19 117.64 0 112.83 0 112.83-4.39Q112.76-3.49 112.35-2.69 111.93-1.88 111.28-1.28 110.64-0.68 109.81-0.34 108.98 0 108.05 0L108.05 0 100.43 0Q99.46 0 98.58-0.38 97.7-0.76 97.05-1.4 96.4-2.05 96.03-2.93 95.65-3.81 95.65-4.81L95.65-4.81ZM100.43-11.35L100.43-4.81 112.83-4.81 112.83-11.35 100.43-11.35ZM157.24-21.19L146.25-21.19 146.25 0 141.45 0 141.45-21.19 130.43-21.19 130.43 0 125.65 0 125.65-26 130.43-26 130.43-21.41Q130.48-22.36 130.87-23.21 131.26-24.05 131.91-24.67 132.56-25.29 133.41-25.65 134.27-26 135.24-26L135.24-26 141.45-26Q142.4-26 143.25-25.65 144.11-25.29 144.77-24.67 145.42-24.05 145.83-23.21 146.23-22.36 146.25-21.41L146.25-21.41Q146.3-22.36 146.68-23.21 147.06-24.05 147.71-24.67 148.35-25.29 149.21-25.65 150.06-26 151.04-26L151.04-26 157.24-26Q158.24-26 159.12-25.62 160-25.24 160.65-24.6 161.29-23.95 161.67-23.07 162.05-22.19 162.05-21.19L162.05-21.19 162.05 0 157.24 0 157.24-21.19ZM170.06-4.81L170.06-11.35Q170.06-12.35 170.43-13.22 170.81-14.09 171.46-14.75 172.11-15.41 172.99-15.78 173.86-16.16 174.84-16.16L174.84-16.16 187.24-16.16 187.24-21.19 171.55-21.19 171.55-26 187.24-26Q188.24-26 189.12-25.62 190-25.24 190.65-24.6 191.3-23.95 191.67-23.07 192.05-22.19 192.05-21.19L192.05-21.19 192.05 0 187.24 0 187.24-4.39Q187.17-3.49 186.76-2.69 186.34-1.88 185.69-1.28 185.05-0.68 184.22-0.34 183.39 0 182.46 0L182.46 0 174.84 0Q173.86 0 172.99-0.38 172.11-0.76 171.46-1.4 170.81-2.05 170.43-2.93 170.06-3.81 170.06-4.81L170.06-4.81ZM174.84-11.35L174.84-4.81 187.24-4.81 187.24-11.35 174.84-11.35ZM223.06-21.19L223.06 0 218.25 0 218.25-21.19 204.84-21.19 204.84 0 200.06 0 200.06-26 204.84-26 204.84-21.41Q204.89-22.36 205.28-23.21 205.67-24.05 206.32-24.67 206.97-25.29 207.82-25.65 208.68-26 209.65-26L209.65-26 218.25-26Q219.25-26 220.13-25.62 221.01-25.24 221.65-24.6 222.3-23.95 222.68-23.07 223.06-22.19 223.06-21.19L223.06-21.19ZM231.55-5L231.55-30Q231.55-31.03 231.94-31.95 232.33-32.86 233.01-33.53 233.7-34.2 234.61-34.61 235.53-35.01 236.55-35.01L236.55-35.01 255.55-35.01Q256.57-35.01 257.49-34.61 258.41-34.2 259.09-33.53 259.77-32.86 260.16-31.95 260.55-31.03 260.55-30L260.55-30 260.55-25.49 255.55-25.49 255.55-30 236.55-30 236.55-5 255.55-5 255.55-13.5 246.05-13.5 246.05-18.51 260.55-18.51 260.55-5Q260.55-3.98 260.16-3.06 259.77-2.15 259.09-1.46 258.41-0.78 257.49-0.39 256.57 0 255.55 0L255.55 0 236.55 0Q235.53 0 234.61-0.39 233.7-0.78 233.01-1.46 232.33-2.15 231.94-3.06 231.55-3.98 231.55-5L231.55-5ZM269.05-4.81L269.05-26 273.83-26 273.83-4.81 287.24-4.81 287.24-26 292.05-26 292.05 0 287.24 0 287.24-4.39Q287.16-3.49 286.75-2.69 286.33-1.88 285.69-1.28 285.04-0.68 284.21-0.34 283.38 0 282.45 0L282.45 0 273.83 0Q272.86 0 271.98-0.38 271.1-0.76 270.45-1.4 269.8-2.05 269.43-2.93 269.05-3.81 269.05-4.81L269.05-4.81ZM314.75-21.19L304.84-21.19 304.84 0 300.05 0 300.05-26 304.84-26 304.84-21.41Q304.88-22.36 305.28-23.21 305.67-24.05 306.31-24.67 306.96-25.29 307.81-25.65 308.67-26 309.65-26L309.65-26 314.75-26Q315.75-26 316.62-25.62 317.48-25.24 318.14-24.6 318.8-23.95 319.18-23.07 319.56-22.19 319.56-21.19L319.56-21.19 319.56-16.8 314.75-16.8 314.75-21.19ZM325.54-4.81L325.54-26 330.32-26 330.32-4.81 343.73-4.81 343.73-26 348.53-26 348.53 0 343.73 0 343.73-4.39Q343.65-3.49 343.24-2.69 342.82-1.88 342.17-1.28 341.53-0.68 340.7-0.34 339.87 0 338.94 0L338.94 0 330.32 0Q329.35 0 328.47-0.38 327.59-0.76 326.94-1.4 326.29-2.05 325.91-2.93 325.54-3.81 325.54-4.81L325.54-4.81Z" opacity="1" transform="matrix(1,0,0,1,0,0)" fill="#8d021f" class="wordmark-text-0" data-fill-palette-color="primary" id="text-0"></path></svg></g></svg></g><g transform="matrix(1,0,0,1,0,24.83904940041155)"><svg viewBox="0 0 192 12.860852905697865" height="12.860852905697865" width="192"><g transform="matrix(1,0,0,1,0,0)"><svg width="192" viewBox="1.05 -34 713.61 47.800000000000004" height="12.860852905697865" data-palette-color="#000000"><path d="M9.9 0.65L9.9 0.65Q5.55 0.65 3.3-1.38 1.05-3.4 1.05-7.25L1.05-7.25Q1.05-10 2-11.58 2.95-13.15 3.75-13.95L3.75-13.95Q4.45-14.65 4.9-14.83 5.35-15 5.65-15L5.65-15Q6.3-15 6.68-14.65 7.05-14.3 7.05-13.75L7.05-13.75Q7.05-13.4 6.93-13.13 6.8-12.85 6.65-12.65L6.65-12.65Q5.6-11.3 5.6-9.3L5.6-9.3Q5.6-7 7.2-5.95 8.8-4.9 11.35-4.9L11.35-4.9Q14.9-4.9 16.5-6.88 18.1-8.85 18.35-12.2L18.35-12.2Q18.45-13.4 18.48-14.95 18.5-16.5 18.5-17.9L18.5-17.9Q18.4-23.15 17.65-26.65L17.65-26.65Q16.4-26.75 14.95-26.8 13.5-26.85 12.2-26.85L12.2-26.85Q7.7-26.85 5.15-26.2L5.15-26.2Q4.3-26 3.75-26L3.75-26Q3.35-26 3.18-26.18 3-26.35 3-27L3-27Q3-27.9 3.3-28.75 3.6-29.6 4.1-30.25L4.1-30.25Q4.65-31 5.4-31.33 6.15-31.65 7.25-31.75L7.25-31.75Q8.95-31.9 11.23-32.02 13.5-32.15 16.4-32.15L16.4-32.15Q18.8-32.15 20.28-32.05 21.75-31.95 22.35-31.85L22.35-31.85Q23.05-31.75 23.35-31.4 23.65-31.05 23.65-30.25L23.65-30.25Q23.65-29.55 23.43-28.8 23.2-28.05 22.8-27.5L22.8-27.5Q22.9-20.8 22.58-15.38 22.25-9.95 20.6-6.2L20.6-6.2Q17.5 0.65 9.9 0.65ZM41.75 0.65L41.75 0.65Q38.3 0.65 36.22-1.23 34.15-3.1 34.15-6.75L34.15-6.75Q34.15-8.45 34.62-10.05 35.1-11.65 35.9-13.05L35.9-13.05Q35.1-12.55 34.7-12.55L34.7-12.55Q34.1-12.55 33.87-13.23 33.65-13.9 33.65-14.55L33.65-14.55Q33.65-15.7 34.12-16.38 34.6-17.05 35.05-17.4L35.05-17.4Q36.1-18.3 38.35-19.38 40.6-20.45 43.75-20.45L43.75-20.45Q48.05-20.45 50.42-18.05 52.8-15.65 52.8-11.35L52.8-11.35Q52.8-8 51.4-5.28 50-2.55 47.52-0.95 45.05 0.65 41.75 0.65ZM43.3-4.45L43.3-4.45Q45.8-4.45 47.52-6.03 49.25-7.6 49.25-10.2L49.25-10.2Q49.25-12.9 47.5-14.05 45.75-15.2 43.45-15.2L43.45-15.2Q42.4-15.2 41.55-15 40.7-14.8 39.95-14.5L39.95-14.5Q39.25-13.5 38.7-12.25 38.15-11 38.15-9.5L38.15-9.5Q38.15-7 39.65-5.73 41.15-4.45 43.3-4.45ZM69.3 0.65L69.3 0.65Q66.8 0.65 65.42-0.8 64.05-2.25 64.05-5L64.05-5Q64.05-6.95 64.6-9L64.6-9Q64.85-9.85 65-10.7 65.15-11.55 65.15-12.4L65.15-12.4Q65.15-14.6 63.8-15.25L63.8-15.25Q62.5-15.95 62.5-16.75L62.5-16.75Q62.5-17.55 63.17-18.35 63.85-19.15 64.85-19.68 65.85-20.2 66.85-20.2L66.85-20.2Q69.7-20.2 69.7-15.55L69.7-15.55Q69.7-14.05 69.47-12.78 69.25-11.5 68.95-10.35L68.95-10.35Q68.75-9.55 68.62-8.75 68.5-7.95 68.5-7.35L68.5-7.35Q68.5-4.85 70.95-4.85L70.95-4.85Q73.25-4.85 75.25-7.3 77.25-9.75 78.55-14.15L78.55-14.15 78.5-15.1Q78.4-17.6 79.37-18.9 80.35-20.2 82.25-20.2L82.25-20.2Q83.9-20.2 83.9-19.15L83.9-19.15Q83.9-18.8 83.77-18.25 83.65-17.7 83.4-16.95L83.4-16.95Q82.9-15.1 82.55-13.03 82.2-10.95 82.2-9.2L82.2-9.2Q82.2-7.25 82.8-5.98 83.4-4.7 85.05-4.25L85.05-4.25Q85.5-4.2 85.77-3.98 86.05-3.75 86.05-3.05L86.05-3.05Q86.05-1.85 85.05-0.7 84.05 0.45 82.15 0.45L82.15 0.45Q78.5 0.45 78.5-4.7L78.5-4.7Q78.5-5.6 78.65-7.4L78.65-7.4 78.55-7.45Q75.4 0.65 69.3 0.65ZM98.29 0.55L98.29 0.55Q97.49 0.55 97.02 0.28 96.54 0 96.69-0.65L96.69-0.65Q97.24-2.8 97.62-5.03 97.99-7.25 97.99-9.3L97.99-9.3Q97.99-11.95 97.67-13.18 97.34-14.4 96.79-14.88 96.24-15.35 95.44-15.6L95.44-15.6Q95.09-15.75 94.82-16 94.54-16.25 94.54-16.7L94.54-16.7Q94.54-17.4 95.09-18.25 95.64-19.1 96.64-19.73 97.64-20.35 98.94-20.35L98.94-20.35Q100.64-20.35 101.32-19.18 101.99-18 101.99-16.1L101.99-16.1Q102.89-18.1 104.22-19.28 105.54-20.45 107.54-20.45L107.54-20.45Q108.89-20.45 109.79-19.85 110.69-19.25 110.69-17.9L110.69-17.9Q110.69-16.55 109.82-15.38 108.94-14.2 108.04-14.2L108.04-14.2Q107.89-14.2 107.69-14.25 107.49-14.3 107.34-14.5L107.34-14.5Q106.69-15.3 105.74-15.3L105.74-15.3Q104.29-15.3 103.19-13.4 102.09-11.5 101.99-8.15L101.99-8.15Q102.04-6.9 102.07-5.6 102.09-4.3 102.09-3.7L102.09-3.7Q102.09-1.85 101.07-0.65 100.04 0.55 98.29 0.55ZM121.94 0.55L121.94 0.55Q120.14 0.55 120.34-0.65L120.34-0.65Q120.89-2.8 121.27-5.03 121.64-7.25 121.64-9.3L121.64-9.3Q121.64-11.95 121.32-13.18 120.99-14.4 120.44-14.88 119.89-15.35 119.09-15.6L119.09-15.6Q118.74-15.75 118.47-16 118.19-16.25 118.19-16.7L118.19-16.7Q118.19-17.4 118.74-18.25 119.29-19.1 120.32-19.73 121.34-20.35 122.64-20.35L122.64-20.35Q124.34-20.35 124.99-19.18 125.64-18 125.64-16.1L125.64-16.1Q125.64-14.85 125.39-13.3 125.14-11.75 124.89-10.5L124.89-10.5 125.04-10.45Q126.04-13.1 127.47-15.38 128.89-17.65 130.79-19.05 132.69-20.45 135.19-20.45L135.19-20.45Q137.84-20.45 139.24-18.85 140.64-17.25 140.64-14.85L140.64-14.85Q140.64-13.85 140.42-12.95 140.19-12.05 139.94-11.2L139.94-11.2Q139.69-10.4 139.52-9.55 139.34-8.7 139.34-7.85L139.34-7.85Q139.34-5 142.04-4L142.04-4Q142.74-3.7 142.74-3.1L142.74-3.1Q142.74-2.65 142.44-1.8 142.14-0.95 141.34-0.23 140.54 0.5 138.99 0.5L138.99 0.5Q136.99 0.5 135.89-0.93 134.79-2.35 134.79-4.55L134.79-4.55Q134.79-5.8 135.07-7.08 135.34-8.35 135.64-9.45L135.64-9.45Q135.84-10.3 136.02-11.13 136.19-11.95 136.19-12.6L136.19-12.6Q136.19-14.9 133.79-14.9L133.79-14.9Q131.74-14.9 130.19-13.38 128.64-11.85 127.54-9.55 126.44-7.25 125.74-4.9L125.74-4.9 125.74-3.7Q125.74-1.85 124.72-0.65 123.69 0.55 121.94 0.55ZM160.19 0.65L160.19 0.65Q156.39 0.65 154.27-1.53 152.14-3.7 152.14-7.6L152.14-7.6Q152.14-11.15 153.69-14.05 155.24-16.95 157.87-18.68 160.49-20.4 163.64-20.4L163.64-20.4Q166.64-20.4 168.44-18.93 170.24-17.45 170.24-15L170.24-15Q170.24-13.05 169.04-11.4 167.84-9.75 165.84-8.78 163.84-7.8 161.39-7.8L161.39-7.8Q158.39-7.8 156.49-9.15L156.49-9.15Q156.54-6.85 158.07-5.45 159.59-4.05 161.99-4.05L161.99-4.05Q163.44-4.05 164.97-4.58 166.49-5.1 167.59-6L167.59-6Q168.29-6.6 168.89-6.6L168.89-6.6Q169.39-6.6 169.72-6.28 170.04-5.95 170.04-5.45L170.04-5.45Q170.04-4.35 168.14-2.55L168.14-2.55Q164.79 0.65 160.19 0.65ZM160.94-11.1L160.94-11.1Q162.74-11.1 163.94-11.85 165.14-12.6 165.14-13.75L165.14-13.75Q165.14-14.7 164.34-15.23 163.54-15.75 162.14-15.75L162.14-15.75Q160.29-15.75 158.92-14.78 157.54-13.8 156.94-12.05L156.94-12.05Q157.64-11.6 158.74-11.35 159.84-11.1 160.94-11.1ZM181.89 13.8L181.89 13.8Q179.84 13.8 178.36 12.7 176.89 11.6 176.89 9.75L176.89 9.75Q176.89 8.3 177.76 7.28 178.64 6.25 179.94 6.25L179.94 6.25Q180.54 6.25 180.79 6.45 181.04 6.65 181.19 6.9L181.19 6.9Q181.59 7.55 182.11 8.03 182.64 8.5 183.54 8.5L183.54 8.5Q184.74 8.5 185.86 7.65 186.99 6.8 187.94 5.7L187.94 5.7Q188.79 4.75 189.99 2.98 191.19 1.2 192.39-1.05L192.39-1.05Q191.29-0.1 190.34 0.33 189.39 0.75 188.54 0.75L188.54 0.75Q187.49 0.75 186.49-0.03 185.49-0.8 185.24-2.95L185.24-2.95Q185.09-4.6 184.66-6.6 184.24-8.6 183.61-10.48 182.99-12.35 182.09-13.65L182.09-13.65Q181.74-14.25 181.29-14.55 180.84-14.85 179.99-14.95L179.99-14.95Q179.39-15 179.21-15.3 179.04-15.6 179.04-16.25L179.04-16.25Q179.04-18.05 180.04-19.15 181.04-20.25 182.74-20.25L182.74-20.25Q184.79-20.25 185.69-18.68 186.59-17.1 187.24-14.85L187.24-14.85Q187.49-13.95 187.76-12.48 188.04-11 188.26-9.3 188.49-7.6 188.59-6.05L188.59-6.05Q188.64-4.95 189.84-4.95L189.84-4.95Q191.44-4.95 192.89-5.95 194.34-6.95 195.26-8.55 196.19-10.15 196.19-11.9L196.19-11.9Q196.19-12.9 195.94-13.7 195.69-14.5 195.09-15.1L195.09-15.1Q194.59-15.7 194.29-16.07 193.99-16.45 193.99-16.95L193.99-16.95Q193.99-17.8 194.79-18.55 195.59-19.3 196.71-19.8 197.84-20.3 198.69-20.3L198.69-20.3Q200.19-20.3 200.69-18.88 201.19-17.45 200.94-15.75L200.94-15.75Q200.64-13.4 199.74-10.2 198.84-7 197.41-3.5 195.99 0 194.16 3.28 192.34 6.55 190.29 9L190.29 9Q188.54 11.15 186.39 12.48 184.24 13.8 181.89 13.8ZM238.84 0.6L238.84 0.6Q234.69 0.6 232.89-1.38 231.09-3.35 231.09-6.6L231.09-6.6Q231.09-7.45 231.24-8.65 231.39-9.85 231.64-11.55L231.64-11.55Q232.04-14 232.24-15.93 232.44-17.85 232.44-20.15L232.44-20.15Q232.44-22.8 232.29-24.45L232.29-24.45Q231.44-23.95 231.04-23.95L231.04-23.95Q230.24-23.95 230.24-25.75L230.24-25.75Q230.24-27.15 230.86-28.13 231.49-29.1 232.94-29.95L232.94-29.95Q234.39-30.85 236.61-31.5 238.84-32.15 241.39-32.15L241.39-32.15Q245.54-32.15 247.69-30.25 249.84-28.35 249.84-25.25L249.84-25.25Q249.84-23.25 248.99-21.55 248.14-19.85 246.59-18.55L246.59-18.55Q252.84-17.55 252.84-11.35L252.84-11.35Q252.84-8 250.94-5.25 249.04-2.5 245.79-0.95L245.79-0.95Q242.64 0.6 238.84 0.6ZM240.84-4.95L240.84-4.95Q243.09-4.95 244.91-5.58 246.74-6.2 247.84-7.4 248.94-8.6 248.94-10.2L248.94-10.2Q248.94-12.25 247.49-13.1 246.04-13.95 244.14-13.95L244.14-13.95Q243.34-13.95 242.14-13.8L242.14-13.8Q241.64-13.7 240.99-13.7L240.99-13.7Q239.89-13.7 239.16-14.6 238.44-15.5 238.44-16.85L238.44-16.85Q238.44-17.8 239.29-18.05L239.29-18.05Q245.39-19.65 245.39-23.6L245.39-23.6Q245.39-26.75 241.04-26.75L241.04-26.75Q239.44-26.75 237.09-26.2L237.09-26.2Q237.09-23.75 236.84-21.08 236.59-18.4 236.09-15.5L236.09-15.5Q235.79-13.5 235.61-12.13 235.44-10.75 235.44-9.9L235.44-9.9Q235.44-7.2 236.79-6.08 238.14-4.95 240.84-4.95ZM271.13 0.65L271.13 0.65Q267.33 0.65 265.21-1.53 263.08-3.7 263.08-7.6L263.08-7.6Q263.08-11.15 264.63-14.05 266.18-16.95 268.81-18.68 271.43-20.4 274.58-20.4L274.58-20.4Q277.58-20.4 279.38-18.93 281.18-17.45 281.18-15L281.18-15Q281.18-13.05 279.98-11.4 278.78-9.75 276.78-8.78 274.78-7.8 272.33-7.8L272.33-7.8Q269.33-7.8 267.43-9.15L267.43-9.15Q267.48-6.85 269.01-5.45 270.53-4.05 272.93-4.05L272.93-4.05Q274.38-4.05 275.91-4.58 277.43-5.1 278.53-6L278.53-6Q279.23-6.6 279.83-6.6L279.83-6.6Q280.33-6.6 280.66-6.28 280.98-5.95 280.98-5.45L280.98-5.45Q280.98-4.35 279.08-2.55L279.08-2.55Q275.73 0.65 271.13 0.65ZM271.88-11.1L271.88-11.1Q273.68-11.1 274.88-11.85 276.08-12.6 276.08-13.75L276.08-13.75Q276.08-14.7 275.28-15.23 274.48-15.75 273.08-15.75L273.08-15.75Q271.23-15.75 269.86-14.78 268.48-13.8 267.88-12.05L267.88-12.05Q268.58-11.6 269.68-11.35 270.78-11.1 271.88-11.1ZM292.83 13.8L292.83 13.8Q290.78 13.8 289.31 12.7 287.83 11.6 287.83 9.75L287.83 9.75Q287.83 8.3 288.71 7.28 289.58 6.25 290.88 6.25L290.88 6.25Q291.48 6.25 291.73 6.45 291.98 6.65 292.13 6.9L292.13 6.9Q292.53 7.55 293.06 8.03 293.58 8.5 294.48 8.5L294.48 8.5Q295.68 8.5 296.81 7.65 297.93 6.8 298.88 5.7L298.88 5.7Q299.73 4.75 300.93 2.98 302.13 1.2 303.33-1.05L303.33-1.05Q302.23-0.1 301.28 0.33 300.33 0.75 299.48 0.75L299.48 0.75Q298.43 0.75 297.43-0.03 296.43-0.8 296.18-2.95L296.18-2.95Q296.03-4.6 295.61-6.6 295.18-8.6 294.56-10.48 293.93-12.35 293.03-13.65L293.03-13.65Q292.68-14.25 292.23-14.55 291.78-14.85 290.93-14.95L290.93-14.95Q290.33-15 290.16-15.3 289.98-15.6 289.98-16.25L289.98-16.25Q289.98-18.05 290.98-19.15 291.98-20.25 293.68-20.25L293.68-20.25Q295.73-20.25 296.63-18.68 297.53-17.1 298.18-14.85L298.18-14.85Q298.43-13.95 298.71-12.48 298.98-11 299.21-9.3 299.43-7.6 299.53-6.05L299.53-6.05Q299.58-4.95 300.78-4.95L300.78-4.95Q302.38-4.95 303.83-5.95 305.28-6.95 306.21-8.55 307.13-10.15 307.13-11.9L307.13-11.9Q307.13-12.9 306.88-13.7 306.63-14.5 306.03-15.1L306.03-15.1Q305.53-15.7 305.23-16.07 304.93-16.45 304.93-16.95L304.93-16.95Q304.93-17.8 305.73-18.55 306.53-19.3 307.66-19.8 308.78-20.3 309.63-20.3L309.63-20.3Q311.13-20.3 311.63-18.88 312.13-17.45 311.88-15.75L311.88-15.75Q311.58-13.4 310.68-10.2 309.78-7 308.36-3.5 306.93 0 305.11 3.28 303.28 6.55 301.23 9L301.23 9Q299.48 11.15 297.33 12.48 295.18 13.8 292.83 13.8ZM329.88 0.65L329.88 0.65Q326.43 0.65 324.36-1.23 322.28-3.1 322.28-6.75L322.28-6.75Q322.28-8.45 322.76-10.05 323.23-11.65 324.03-13.05L324.03-13.05Q323.23-12.55 322.83-12.55L322.83-12.55Q322.23-12.55 322.01-13.23 321.78-13.9 321.78-14.55L321.78-14.55Q321.78-15.7 322.26-16.38 322.73-17.05 323.18-17.4L323.18-17.4Q324.23-18.3 326.48-19.38 328.73-20.45 331.88-20.45L331.88-20.45Q336.18-20.45 338.56-18.05 340.93-15.65 340.93-11.35L340.93-11.35Q340.93-8 339.53-5.28 338.13-2.55 335.66-0.95 333.18 0.65 329.88 0.65ZM331.43-4.45L331.43-4.45Q333.93-4.45 335.66-6.03 337.38-7.6 337.38-10.2L337.38-10.2Q337.38-12.9 335.63-14.05 333.88-15.2 331.58-15.2L331.58-15.2Q330.53-15.2 329.68-15 328.83-14.8 328.08-14.5L328.08-14.5Q327.38-13.5 326.83-12.25 326.28-11 326.28-9.5L326.28-9.5Q326.28-7 327.78-5.73 329.28-4.45 331.43-4.45ZM353.98 0.55L353.98 0.55Q352.18 0.55 352.38-0.65L352.38-0.65Q352.93-2.8 353.3-5.03 353.68-7.25 353.68-9.3L353.68-9.3Q353.68-11.95 353.35-13.18 353.03-14.4 352.48-14.88 351.93-15.35 351.13-15.6L351.13-15.6Q350.78-15.75 350.5-16 350.23-16.25 350.23-16.7L350.23-16.7Q350.23-17.4 350.78-18.25 351.33-19.1 352.35-19.73 353.38-20.35 354.68-20.35L354.68-20.35Q356.38-20.35 357.03-19.18 357.68-18 357.68-16.1L357.68-16.1Q357.68-14.85 357.43-13.3 357.18-11.75 356.93-10.5L356.93-10.5 357.08-10.45Q358.08-13.1 359.5-15.38 360.93-17.65 362.83-19.05 364.73-20.45 367.23-20.45L367.23-20.45Q369.88-20.45 371.28-18.85 372.68-17.25 372.68-14.85L372.68-14.85Q372.68-13.85 372.45-12.95 372.23-12.05 371.98-11.2L371.98-11.2Q371.73-10.4 371.55-9.55 371.38-8.7 371.38-7.85L371.38-7.85Q371.38-5 374.08-4L374.08-4Q374.78-3.7 374.78-3.1L374.78-3.1Q374.78-2.65 374.48-1.8 374.18-0.95 373.38-0.23 372.58 0.5 371.03 0.5L371.03 0.5Q369.03 0.5 367.93-0.93 366.83-2.35 366.83-4.55L366.83-4.55Q366.83-5.8 367.1-7.08 367.38-8.35 367.68-9.45L367.68-9.45Q367.88-10.3 368.05-11.13 368.23-11.95 368.23-12.6L368.23-12.6Q368.23-14.9 365.83-14.9L365.83-14.9Q363.78-14.9 362.23-13.38 360.68-11.85 359.58-9.55 358.48-7.25 357.78-4.9L357.78-4.9 357.78-3.7Q357.78-1.85 356.75-0.65 355.73 0.55 353.98 0.55ZM390.63 0.65L390.63 0.65Q387.63 0.65 385.9-1.35 384.18-3.35 384.18-6.8L384.18-6.8Q384.18-9.35 385-11.8 385.83-14.25 387.33-16.2 388.83-18.15 390.83-19.3 392.83-20.45 395.18-20.45L395.18-20.45Q396.68-20.45 397.85-20 399.03-19.55 399.93-18.85L399.93-18.85Q399.88-22.25 399.58-24.95 399.28-27.65 398.13-29.95L398.13-29.95Q397.93-30.35 397.8-30.68 397.68-31 397.68-31.3L397.68-31.3Q397.68-32 398.25-32.6 398.83-33.2 399.68-33.6 400.53-34 401.28-34L401.28-34Q402.63-34 403.3-32.83 403.98-31.65 404.18-29.63 404.38-27.6 404.38-25L404.38-25Q404.38-21.2 404.03-18.15 403.68-15.1 403.38-12.8L403.38-12.8Q403.18-11.3 403.03-10.2 402.88-9.1 402.88-8.4L402.88-8.4Q402.88-4.85 405.93-4.2L405.93-4.2Q406.73-4.05 406.73-3.15L406.73-3.15Q406.73-2.6 406.4-1.75 406.08-0.9 405.23-0.23 404.38 0.45 402.78 0.45L402.78 0.45Q400.63 0.45 399.88-1 399.13-2.45 399.13-5.4L399.13-5.4Q397.73-2.85 395.58-1.1 393.43 0.65 390.63 0.65ZM392.18-4.7L392.18-4.7Q393.58-4.7 394.98-5.6 396.38-6.5 397.48-8.05L397.48-8.05Q398.13-9 398.65-10.23 399.18-11.45 399.63-12.7L399.63-12.7Q397.08-15 393.98-15L393.98-15Q391.28-15 389.68-13.38 388.08-11.75 388.08-9.35L388.08-9.35Q388.08-7.3 389.28-6 390.48-4.7 392.18-4.7ZM445.12 0.6L445.12 0.6Q440.97 0.6 439.17-1.38 437.37-3.35 437.37-6.6L437.37-6.6Q437.37-7.45 437.52-8.65 437.67-9.85 437.92-11.55L437.92-11.55Q438.32-14 438.52-15.93 438.72-17.85 438.72-20.15L438.72-20.15Q438.72-22.8 438.57-24.45L438.57-24.45Q437.72-23.95 437.32-23.95L437.32-23.95Q436.52-23.95 436.52-25.75L436.52-25.75Q436.52-27.15 437.15-28.13 437.77-29.1 439.22-29.95L439.22-29.95Q440.67-30.85 442.9-31.5 445.12-32.15 447.67-32.15L447.67-32.15Q451.82-32.15 453.97-30.25 456.12-28.35 456.12-25.25L456.12-25.25Q456.12-23.25 455.27-21.55 454.42-19.85 452.87-18.55L452.87-18.55Q459.12-17.55 459.12-11.35L459.12-11.35Q459.12-8 457.22-5.25 455.32-2.5 452.07-0.95L452.07-0.95Q448.92 0.6 445.12 0.6ZM447.12-4.95L447.12-4.95Q449.37-4.95 451.2-5.58 453.02-6.2 454.12-7.4 455.22-8.6 455.22-10.2L455.22-10.2Q455.22-12.25 453.77-13.1 452.32-13.95 450.42-13.95L450.42-13.95Q449.62-13.95 448.42-13.8L448.42-13.8Q447.92-13.7 447.27-13.7L447.27-13.7Q446.17-13.7 445.45-14.6 444.72-15.5 444.72-16.85L444.72-16.85Q444.72-17.8 445.57-18.05L445.57-18.05Q451.67-19.65 451.67-23.6L451.67-23.6Q451.67-26.75 447.32-26.75L447.32-26.75Q445.72-26.75 443.37-26.2L443.37-26.2Q443.37-23.75 443.12-21.08 442.87-18.4 442.37-15.5L442.37-15.5Q442.07-13.5 441.9-12.13 441.72-10.75 441.72-9.9L441.72-9.9Q441.72-7.2 443.07-6.08 444.42-4.95 447.12-4.95ZM477.47 0.65L477.47 0.65Q474.02 0.65 471.95-1.23 469.87-3.1 469.87-6.75L469.87-6.75Q469.87-8.45 470.35-10.05 470.82-11.65 471.62-13.05L471.62-13.05Q470.82-12.55 470.42-12.55L470.42-12.55Q469.82-12.55 469.6-13.23 469.37-13.9 469.37-14.55L469.37-14.55Q469.37-15.7 469.85-16.38 470.32-17.05 470.77-17.4L470.77-17.4Q471.82-18.3 474.07-19.38 476.32-20.45 479.47-20.45L479.47-20.45Q483.77-20.45 486.15-18.05 488.52-15.65 488.52-11.35L488.52-11.35Q488.52-8 487.12-5.28 485.72-2.55 483.25-0.95 480.77 0.65 477.47 0.65ZM479.02-4.45L479.02-4.45Q481.52-4.45 483.25-6.03 484.97-7.6 484.97-10.2L484.97-10.2Q484.97-12.9 483.22-14.05 481.47-15.2 479.17-15.2L479.17-15.2Q478.12-15.2 477.27-15 476.42-14.8 475.67-14.5L475.67-14.5Q474.97-13.5 474.42-12.25 473.87-11 473.87-9.5L473.87-9.5Q473.87-7 475.37-5.73 476.87-4.45 479.02-4.45ZM505.02 0.65L505.02 0.65Q502.52 0.65 501.14-0.8 499.77-2.25 499.77-5L499.77-5Q499.77-6.95 500.32-9L500.32-9Q500.57-9.85 500.72-10.7 500.87-11.55 500.87-12.4L500.87-12.4Q500.87-14.6 499.52-15.25L499.52-15.25Q498.22-15.95 498.22-16.75L498.22-16.75Q498.22-17.55 498.89-18.35 499.57-19.15 500.57-19.68 501.57-20.2 502.57-20.2L502.57-20.2Q505.42-20.2 505.42-15.55L505.42-15.55Q505.42-14.05 505.19-12.78 504.97-11.5 504.67-10.35L504.67-10.35Q504.47-9.55 504.34-8.75 504.22-7.95 504.22-7.35L504.22-7.35Q504.22-4.85 506.67-4.85L506.67-4.85Q508.97-4.85 510.97-7.3 512.97-9.75 514.27-14.15L514.27-14.15 514.22-15.1Q514.12-17.6 515.09-18.9 516.07-20.2 517.97-20.2L517.97-20.2Q519.62-20.2 519.62-19.15L519.62-19.15Q519.62-18.8 519.49-18.25 519.37-17.7 519.12-16.95L519.12-16.95Q518.62-15.1 518.27-13.03 517.92-10.95 517.92-9.2L517.92-9.2Q517.92-7.25 518.52-5.98 519.12-4.7 520.77-4.25L520.77-4.25Q521.22-4.2 521.49-3.98 521.77-3.75 521.77-3.05L521.77-3.05Q521.77-1.85 520.77-0.7 519.77 0.45 517.87 0.45L517.87 0.45Q514.22 0.45 514.22-4.7L514.22-4.7Q514.22-5.6 514.37-7.4L514.37-7.4 514.27-7.45Q511.12 0.65 505.02 0.65ZM533.82 0.55L533.82 0.55Q532.02 0.55 532.22-0.65L532.22-0.65Q532.77-2.8 533.14-5.03 533.52-7.25 533.52-9.3L533.52-9.3Q533.52-11.95 533.19-13.18 532.87-14.4 532.32-14.88 531.77-15.35 530.97-15.6L530.97-15.6Q530.62-15.75 530.34-16 530.07-16.25 530.07-16.7L530.07-16.7Q530.07-17.4 530.62-18.25 531.17-19.1 532.19-19.73 533.22-20.35 534.52-20.35L534.52-20.35Q536.22-20.35 536.87-19.18 537.52-18 537.52-16.1L537.52-16.1Q537.52-14.85 537.27-13.3 537.02-11.75 536.77-10.5L536.77-10.5 536.92-10.45Q537.92-13.1 539.34-15.38 540.77-17.65 542.67-19.05 544.57-20.45 547.07-20.45L547.07-20.45Q549.72-20.45 551.12-18.85 552.52-17.25 552.52-14.85L552.52-14.85Q552.52-13.85 552.29-12.95 552.07-12.05 551.82-11.2L551.82-11.2Q551.57-10.4 551.39-9.55 551.22-8.7 551.22-7.85L551.22-7.85Q551.22-5 553.92-4L553.92-4Q554.62-3.7 554.62-3.1L554.62-3.1Q554.62-2.65 554.32-1.8 554.02-0.95 553.22-0.23 552.42 0.5 550.87 0.5L550.87 0.5Q548.87 0.5 547.77-0.93 546.67-2.35 546.67-4.55L546.67-4.55Q546.67-5.8 546.94-7.08 547.22-8.35 547.52-9.45L547.52-9.45Q547.72-10.3 547.89-11.13 548.07-11.95 548.07-12.6L548.07-12.6Q548.07-14.9 545.67-14.9L545.67-14.9Q543.62-14.9 542.07-13.38 540.52-11.85 539.42-9.55 538.32-7.25 537.62-4.9L537.62-4.9 537.62-3.7Q537.62-1.85 536.59-0.65 535.57 0.55 533.82 0.55ZM570.47 0.65L570.47 0.65Q567.47 0.65 565.74-1.35 564.02-3.35 564.02-6.8L564.02-6.8Q564.02-9.35 564.84-11.8 565.67-14.25 567.17-16.2 568.67-18.15 570.67-19.3 572.67-20.45 575.02-20.45L575.02-20.45Q576.52-20.45 577.69-20 578.87-19.55 579.77-18.85L579.77-18.85Q579.72-22.25 579.42-24.95 579.12-27.65 577.97-29.95L577.97-29.95Q577.77-30.35 577.64-30.68 577.52-31 577.52-31.3L577.52-31.3Q577.52-32 578.09-32.6 578.67-33.2 579.52-33.6 580.37-34 581.12-34L581.12-34Q582.47-34 583.14-32.83 583.82-31.65 584.02-29.63 584.22-27.6 584.22-25L584.22-25Q584.22-21.2 583.87-18.15 583.52-15.1 583.22-12.8L583.22-12.8Q583.02-11.3 582.87-10.2 582.72-9.1 582.72-8.4L582.72-8.4Q582.72-4.85 585.77-4.2L585.77-4.2Q586.57-4.05 586.57-3.15L586.57-3.15Q586.57-2.6 586.24-1.75 585.92-0.9 585.07-0.23 584.22 0.45 582.62 0.45L582.62 0.45Q580.47 0.45 579.72-1 578.97-2.45 578.97-5.4L578.97-5.4Q577.57-2.85 575.42-1.1 573.27 0.65 570.47 0.65ZM572.02-4.7L572.02-4.7Q573.42-4.7 574.82-5.6 576.22-6.5 577.32-8.05L577.32-8.05Q577.97-9 578.49-10.23 579.02-11.45 579.47-12.7L579.47-12.7Q576.92-15 573.82-15L573.82-15Q571.12-15 569.52-13.38 567.92-11.75 567.92-9.35L567.92-9.35Q567.92-7.3 569.12-6 570.32-4.7 572.02-4.7ZM602.41 0.65L602.41 0.65Q599.41 0.65 597.59-1.23 595.76-3.1 595.76-6.6L595.76-6.6Q595.76-9.1 596.74-11.58 597.71-14.05 599.56-16.05 601.41-18.05 604.01-19.25 606.61-20.45 609.86-20.45L609.86-20.45Q612.86-20.45 614.99-19.43 617.11-18.4 617.11-16.65L617.11-16.65Q617.11-16.2 617.01-15.48 616.91-14.75 616.76-14.3L616.76-14.3Q616.61-13.9 616.34-13.58 616.06-13.25 615.61-13.25L615.61-13.25Q615.41-13.25 614.86-13.4L614.86-13.4Q614.66-12.35 614.56-11.35 614.46-10.35 614.46-9.35L614.46-9.35Q614.46-7.45 615.04-5.98 615.61-4.5 617.31-4.15L617.31-4.15Q617.76-4.05 618.04-3.85 618.31-3.65 618.31-3L618.31-3Q618.31-2.45 618.04-1.6 617.76-0.75 616.99-0.08 616.21 0.6 614.76 0.6L614.76 0.6Q612.81 0.6 611.76-0.83 610.71-2.25 610.71-4.9L610.71-4.9Q609.36-2.45 607.29-0.9 605.21 0.65 602.41 0.65ZM604.01-4.55L604.01-4.55Q606.01-4.55 607.54-5.8 609.06-7.05 609.91-8.95L609.91-8.95Q610.46-10.15 610.76-11.58 611.06-13 611.16-14.4L611.16-14.4Q610.31-14.8 609.21-15.05 608.11-15.3 606.91-15.3L606.91-15.3Q603.86-15.3 601.89-13.5 599.91-11.7 599.91-9L599.91-9Q599.91-7 601.01-5.78 602.11-4.55 604.01-4.55ZM630.81 0.55L630.81 0.55Q630.01 0.55 629.54 0.28 629.06 0 629.21-0.65L629.21-0.65Q629.76-2.8 630.14-5.03 630.51-7.25 630.51-9.3L630.51-9.3Q630.51-11.95 630.19-13.18 629.86-14.4 629.31-14.88 628.76-15.35 627.96-15.6L627.96-15.6Q627.61-15.75 627.34-16 627.06-16.25 627.06-16.7L627.06-16.7Q627.06-17.4 627.61-18.25 628.16-19.1 629.16-19.73 630.16-20.35 631.46-20.35L631.46-20.35Q633.16-20.35 633.84-19.18 634.51-18 634.51-16.1L634.51-16.1Q635.41-18.1 636.74-19.28 638.06-20.45 640.06-20.45L640.06-20.45Q641.41-20.45 642.31-19.85 643.21-19.25 643.21-17.9L643.21-17.9Q643.21-16.55 642.34-15.38 641.46-14.2 640.56-14.2L640.56-14.2Q640.41-14.2 640.21-14.25 640.01-14.3 639.86-14.5L639.86-14.5Q639.21-15.3 638.26-15.3L638.26-15.3Q636.81-15.3 635.71-13.4 634.61-11.5 634.51-8.15L634.51-8.15Q634.56-6.9 634.59-5.6 634.61-4.3 634.61-3.7L634.61-3.7Q634.61-1.85 633.59-0.65 632.56 0.55 630.81 0.55ZM655.86-24.85L655.86-24.85Q654.46-24.9 653.61-25.7 652.76-26.5 652.76-27.95L652.76-27.95Q652.81-29.5 653.81-30.48 654.81-31.45 656.36-31.4L656.36-31.4Q657.81-31.35 658.64-30.55 659.46-29.75 659.41-28.3L659.41-28.3Q659.36-26.8 658.41-25.83 657.46-24.85 655.86-24.85ZM655.91 0.5L655.91 0.5Q654.41 0.5 653.56-0.33 652.71-1.15 652.71-3.15L652.71-3.15Q652.71-4.3 652.94-5.4 653.16-6.5 653.46-7.55L653.46-7.55Q653.81-8.65 654.04-9.8 654.26-10.95 654.26-12.25L654.26-12.25Q654.26-13.15 654.01-13.98 653.76-14.8 652.91-15.2L652.91-15.2Q652.26-15.55 651.79-15.93 651.31-16.3 651.31-16.9L651.31-16.9Q651.31-17.6 651.96-18.4 652.61-19.2 653.69-19.78 654.76-20.35 655.91-20.35L655.91-20.35Q657.16-20.35 657.74-19.7 658.31-19.05 658.51-18.05 658.71-17.05 658.71-16L658.71-16Q658.71-14.4 658.46-12.88 658.21-11.35 657.96-10.05L657.96-10.05Q657.76-9.1 657.66-8.3 657.56-7.5 657.56-6.8L657.56-6.8Q657.56-5.55 658.16-4.93 658.76-4.3 659.86-3.75L659.86-3.75Q660.31-3.5 660.31-3L660.31-3Q660.31-2.6 659.91-1.75 659.51-0.9 658.54-0.2 657.56 0.5 655.91 0.5ZM678.31 0.65L678.31 0.65Q674.51 0.65 672.38-1.53 670.26-3.7 670.26-7.6L670.26-7.6Q670.26-11.15 671.81-14.05 673.36-16.95 675.98-18.68 678.61-20.4 681.76-20.4L681.76-20.4Q684.76-20.4 686.56-18.93 688.36-17.45 688.36-15L688.36-15Q688.36-13.05 687.16-11.4 685.96-9.75 683.96-8.78 681.96-7.8 679.51-7.8L679.51-7.8Q676.51-7.8 674.61-9.15L674.61-9.15Q674.66-6.85 676.18-5.45 677.71-4.05 680.11-4.05L680.11-4.05Q681.56-4.05 683.08-4.58 684.61-5.1 685.71-6L685.71-6Q686.41-6.6 687.01-6.6L687.01-6.6Q687.51-6.6 687.83-6.28 688.16-5.95 688.16-5.45L688.16-5.45Q688.16-4.35 686.26-2.55L686.26-2.55Q682.91 0.65 678.31 0.65ZM679.06-11.1L679.06-11.1Q680.86-11.1 682.06-11.85 683.26-12.6 683.26-13.75L683.26-13.75Q683.26-14.7 682.46-15.23 681.66-15.75 680.26-15.75L680.26-15.75Q678.41-15.75 677.03-14.78 675.66-13.8 675.06-12.05L675.06-12.05Q675.76-11.6 676.86-11.35 677.96-11.1 679.06-11.1ZM705.21 0.65L705.21 0.65Q703.36 0.65 701.76 0.1 700.16-0.45 699.16-1.45 698.16-2.45 698.16-3.85L698.16-3.85Q698.16-4.6 698.53-5.28 698.91-5.95 699.76-5.95L699.76-5.95Q700.21-5.95 700.71-5.7L700.71-5.7Q701.61-5.2 703.01-4.78 704.41-4.35 705.96-4.35L705.96-4.35Q707.71-4.35 709.06-4.85 710.41-5.35 710.41-6.25L710.41-6.25Q710.41-6.95 709.38-7.25 708.36-7.55 705.96-7.9L705.96-7.9Q704.31-8.2 702.76-8.6 701.21-9 700.21-9.98 699.21-10.95 699.21-12.85L699.21-12.85Q699.21-14.7 700.23-16.43 701.26-18.15 703.31-19.3 705.36-20.45 708.31-20.45L708.31-20.45Q709.86-20.45 711.31-20.1 712.76-19.75 713.71-19.05 714.66-18.35 714.66-17.3L714.66-17.3Q714.66-16.4 714.03-15.65 713.41-14.9 712.58-14.43 711.76-13.95 711.21-13.95L711.21-13.95Q710.81-13.95 710.26-14.5L710.26-14.5Q709.41-15.2 708.38-15.48 707.36-15.75 706.36-15.75L706.36-15.75Q704.86-15.75 703.93-15.3 703.01-14.85 703.01-14.15L703.01-14.15Q703.01-13.5 703.78-13.1 704.56-12.7 705.71-12.53 706.86-12.35 707.91-12.2L707.91-12.2Q710.81-11.8 712.51-10.83 714.21-9.85 714.21-7.4L714.21-7.4Q714.21-5.5 713.13-3.63 712.06-1.75 710.03-0.55 708.01 0.65 705.21 0.65Z" opacity="1" transform="matrix(1,0,0,1,0,0)" fill="#000000" class="slogan-text-1" data-fill-palette-color="secondary" id="text-1"></path></svg></g></svg></g></svg></g></svg></g><g transform="matrix(1,0,0,1,73.9940785757822,0)"><svg viewBox="0 0 44.01184284843562 73.46278363173093" height="73.46278363173093" width="44.01184284843562"><g><svg xmlns="http://www.w3.org/2000/svg" xmlns:xlink="http://www.w3.org/1999/xlink" version="1.1" x="0" y="0" viewBox="24.449035868661348 8.367000163494922 53.918363490553965 89.9983462297666" enable-background="new 21.454 3.367 59.909 100" xml:space="preserve" height="73.46278363173093" width="44.01184284843562" class="icon-icon-0" data-fill-palette-color="accent" id="icon-0"><path d="M78.201 87.271L69.355 62.445A2.87 2.87 0 0 0 65.824 60.661L59.329 62.618A2.86 2.86 0 0 0 57.437 64.468L54.872 56.704A2.57 2.57 0 0 0 56.607 56.037C57.682 55.077 57.649 53.522 56.805 52.354 56.189 51.502 55.555 50.183 54.645 48.744 50.939 42.886 46.038 26.689 46.038 26.689A1.4 1.4 0 0 0 45.87 26.443C45.212 25.039 43.677 24.305 41.828 24.019 39.166 23.606 36.816 24.239 36.242 27.149L31.567 55.514C31.087 57.947 30.82 59.181 30.785 60.47 30.656 65.14 27.406 95.393 27.406 95.393 27.278 96.398 28.222 98.168 29.643 98.35 31.063 98.532 32.422 97.055 32.551 96.05L42.774 58.447C42.775 58.427 42.76 58.416 42.757 58.398A8.4 8.4 0 0 0 42.978 57.2L44.558 42.972C46.733 47.037 49.202 51.304 51.131 53.689 51.276 53.868 51.549 54.199 51.839 54.548L51.023 54.832 51.795 57.049 51.947 56.996 63.551 92.11A3.39 3.39 0 1 0 68.866 94.899C68.866 94.338 68.717 93.816 68.475 93.35 68.528 93.337 68.581 93.33 68.634 93.315L76.332 90.98A2.87 2.87 0 0 0 78.201 87.271" fill="#8d021f" data-fill-palette-color="accent"></path><circle cx="42.221" cy="15.511" r="7.1" fill="#8d021f" data-fill-palette-color="accent"></circle><path d="M49.063 94.18L43.436 59.987 38.831 76.92 44.072 95.591C44.347 96.565 45.91 97.825 47.287 97.435 48.667 97.045 49.338 95.154 49.063 94.18" fill="#8d021f" data-fill-palette-color="accent"></path><path d="M32.773 40.885L32.855 40.329C33.493 35.989 33.968 32.886 34.287 30.956 32.374 34.619 28.624 41.838 25.299 48.487 25.034 49.018 23.986 51.35 24.686 52.525 24.974 53.009 25.506 53.294 26.096 53.455 27.914 53.952 30.441 49.376 30.939 48.429 31.306 47.731 31.661 47.065 32.007 46.42L32.497 43.443C32.59 42.416 32.683 41.48 32.773 40.885" fill="#8d021f" data-fill-palette-color="accent"></path></svg></g></svg></g><g></g></svg></g></svg></g></svg></g></svg></g><defs></defs></svg><rect width="320" height="360" fill="none" stroke="none" visibility="hidden"></rect></g></svg></g></svg>